<?xml version="1.0" encoding="utf-8"?>
<svg viewBox="0 0 500 500" xmlns="http://www.w3.org/2000/svg">
  <g transform="matrix(0.395657, 0, 0, 0.395657, 13.3128, 186.279864)" style="">
    <path opacity="1.000000" stroke="none" d="M 547.356 395.175 C 516.623 382.566 500.222 358.065 500.201 325.123 C 500.193 312.658 500.2 300.192 500.2 287.019 C 491.227 288.905 482.819 290.624 474.434 292.446 C 452.02 297.317 429.645 302.373 407.196 307.08 C 393.584 309.934 380.452 299.523 379.783 285.645 C 379.553 280.874 379.747 276.083 379.747 270.974 C 373.624 275.714 368.262 280.675 362.157 284.427 C 348.239 292.982 332.597 297.106 316.8 300.609 C 294.406 305.576 272.094 310.963 249.59 315.374 C 228.947 319.42 215.039 307.45 214.838 286.541 C 214.824 285.054 214.836 283.567 214.836 281.328 C 206.27 283.153 198.08 284.849 189.913 286.645 C 166.194 291.859 142.486 297.12 118.77 302.347 C 106.854 304.973 99.497 313.31 99.329 325.548 C 99.054 345.541 98.675 365.566 99.526 385.527 C 99.865 393.47 103.269 401.305 105.446 409.142 C 109.134 422.416 112.956 435.654 116.784 449.128 C 106.897 449.128 97.457 449.128 87.435 449.128 C 87.435 447.115 87.435 445.322 87.435 443.53 C 87.435 369.539 87.429 295.548 87.441 221.557 C 87.443 206.311 94.206 197.935 109.23 194.37 C 115.541 192.873 121.77 190.896 128.155 189.894 C 132.59 189.198 133.193 187.124 133.176 183.221 C 133.034 150.225 133.095 117.229 133.095 84.233 C 133.095 82.413 133.095 80.593 133.095 78.428 C 149.774 74.991 166.207 71.555 182.663 68.23 C 197.333 65.267 211.647 66.607 224.974 73.483 C 250.706 86.761 265.459 107.523 266.005 137.049 C 266.372 156.873 266.081 176.709 266.085 196.54 C 266.085 198.359 266.085 200.177 266.085 202.793 C 272.442 201.303 278.325 199.848 284.243 198.55 C 313.307 192.18 342.379 185.85 371.449 179.508 C 384.408 176.681 391.766 167.61 391.825 154.307 C 391.874 143.143 391.871 131.978 391.907 120.814 C 391.908 120.513 392.098 120.212 392.298 119.621 C 395.615 119.621 399.028 119.621 402.977 119.621 C 402.977 145.688 402.977 171.759 402.977 198.385 C 418.024 195.056 432.468 191.937 446.874 188.653 C 462.588 185.069 478.309 181.501 493.949 177.61 C 506.589 174.465 513.219 165.661 513.235 152.597 C 513.276 119.101 513.314 85.605 513.164 52.11 C 513.147 48.274 514.057 46.716 518.065 45.922 C 550.701 39.46 583.205 32.309 615.899 26.166 C 658.183 18.222 698.568 51.735 698.923 94.706 C 699.176 125.201 698.982 155.699 698.987 186.195 C 698.987 187.99 698.987 189.786 698.987 192.165 C 708.425 189.982 717.344 188.044 726.164 185.731 C 727.334 185.424 728.63 183.289 728.815 181.864 C 736.946 118.95 769.089 72.558 825.823 44.472 C 924.771 -4.51 1046.196 55.035 1068.841 163.074 C 1078.865 210.896 1070.18 255.305 1043.394 296.172 C 1042.67 297.276 1041.949 298.383 1041.079 299.715 C 1042.378 301.082 1043.581 302.405 1044.843 303.667 C 1076.183 335.016 1107.594 366.294 1138.848 397.729 C 1154.374 413.346 1148.617 438.636 1127.971 445.489 C 1116.468 449.307 1106.312 446.29 1097.788 437.774 C 1066.664 406.68 1035.552 375.574 1004.462 344.447 C 1003.172 343.156 1002.142 341.606 1001.609 340.944 C 989.096 347.354 977.789 354.159 965.732 359.158 C 889.125 390.919 800.926 363.299 755.832 293.661 C 753.72 290.4 751.772 289.751 748.221 290.552 C 728.604 294.975 708.947 299.216 689.293 303.473 C 677.346 306.06 669.851 314.935 669.758 327.163 C 669.634 343.327 669.718 359.492 669.726 375.657 C 669.727 377.998 670.04 379.964 666.584 380.674 C 637.912 386.571 609.325 392.878 580.637 398.692 C 569.459 400.958 558.433 399.006 547.356 395.175 M 884.549 341.374 C 894.346 341.418 904.221 342.286 913.926 341.363 C 956.035 337.36 990.218 318.19 1014.961 284.122 C 1044.376 243.62 1051.407 198.585 1034.091 151.527 C 1014.485 98.247 975.21 66.885 919.126 58.67 C 876.676 52.452 838.774 64.77 806.174 92.855 C 762.347 130.613 745.583 195.773 766.962 249.474 C 788.005 302.332 827.313 332.857 884.549 341.374 M 616.683 282.565 C 638.119 278.186 659.554 273.807 680.656 269.496 C 680.656 263.333 680.656 257.948 680.656 252.256 C 624.205 264.412 568.177 276.476 512.377 288.49 C 512.377 293.913 512.377 298.671 512.377 304.039 C 547.148 296.88 581.503 289.807 616.683 282.565 M 548.015 149.139 C 540.402 150.691 532.788 152.243 525.135 153.803 C 525.135 159.614 525.135 165.033 525.135 170.924 C 579.463 159.62 633.429 148.39 687.355 137.169 C 687.355 131.368 687.355 126.115 687.355 120.447 C 640.945 129.978 594.888 139.436 548.015 149.139 M 221.767 169.66 C 231.696 167.614 241.641 165.639 251.534 163.43 C 252.76 163.157 254.569 161.696 254.639 160.684 C 254.968 155.922 254.785 151.123 254.785 145.764 C 217.805 153.549 181.424 161.209 144.932 168.892 C 144.932 174.521 144.932 179.876 144.932 185.647 C 170.559 180.328 195.752 175.099 221.767 169.66 Z" style="fill: rgb(0, 27, 72);"/>
    <path opacity="1.000000" stroke="none" d="M 350.863 70.329 C 355.828 63.216 360.602 56.408 365.711 49.123 C 374.248 55.029 382.661 60.849 391.402 66.897 C 397.303 58.195 403.047 49.723 409.006 40.935 C 419 47.918 428.638 54.653 438.748 61.717 C 431.797 71.537 425.032 81.095 417.971 91.069 C 409.41 85.162 401.125 79.445 392.623 73.578 C 386.517 82.154 380.653 90.389 374.682 98.774 C 364.653 92.068 354.986 85.604 344.987 78.918 C 346.96 76.042 348.816 73.337 350.863 70.329 Z" style="fill: rgb(0, 27, 72);"/>
    <path opacity="1.000000" stroke="none" d="M 171.082 21.917 C 173.238 19.719 174.695 19.763 174.789 22.933 C 174.868 25.592 174.744 28.258 174.847 30.915 C 174.891 32.03 175.302 34.097 175.521 34.093 C 179.183 34.037 182.885 33.965 186.47 33.306 C 187.486 33.119 188.781 31.089 188.869 29.829 C 189.169 25.526 188.811 21.176 189.109 16.872 C 189.188 15.724 190.712 14.676 191.572 13.582 C 192.032 13.874 192.492 14.167 192.951 14.459 C 192.951 21.737 193.276 29.033 192.839 36.284 C 192.54 41.254 189.574 45.454 184.778 46.744 C 174.426 49.531 163.87 51.561 153.012 53.986 C 153.012 44.833 153.012 36.418 153.012 28.002 C 153.349 27.674 153.685 27.346 154.022 27.018 C 154.968 28.056 156.619 29.012 156.751 30.145 C 157.843 39.569 157.733 39.455 167.28 37.511 C 170.173 36.922 171.201 35.683 171.071 32.849 C 170.911 29.363 171.041 25.865 171.082 21.917 Z" style="fill: rgb(0, 27, 72);"/>
    <path opacity="1.000000" stroke="none" d="M 861.327 286.003 C 859.985 282.32 857.992 278.931 857.941 275.514 C 857.641 255.362 857.753 235.204 857.809 215.048 C 857.836 205.243 863.567 199.463 873.284 199.451 C 907.932 199.412 942.581 199.409 977.229 199.455 C 986.322 199.467 992.42 205.159 992.516 214.317 C 992.73 234.803 992.708 255.295 992.526 275.783 C 992.444 285.011 986.653 290.657 977.431 290.84 C 967.773 291.033 958.106 291.03 948.449 290.822 C 945.115 290.75 942.856 291.802 940.768 294.344 C 937.069 298.844 933.109 303.133 929.164 307.424 C 925.774 311.111 923.376 311.132 920.025 307.486 C 915.968 303.072 912.254 298.316 907.941 294.177 C 906.151 292.458 903.228 291.144 900.763 291.043 C 891.783 290.674 882.778 290.851 873.783 290.911 C 869.082 290.943 864.895 289.802 861.327 286.003 M 891.454 281.328 C 895.616 281.328 899.794 281.56 903.934 281.262 C 907.965 280.972 910.858 282.279 913.396 285.44 C 916.815 289.698 920.644 293.627 924.602 298.038 C 928.814 293.312 932.582 288.656 936.847 284.511 C 938.539 282.866 941.31 281.537 943.631 281.469 C 954.441 281.153 965.267 281.271 976.086 281.354 C 980.554 281.388 982.946 279.673 982.931 274.92 C 982.871 255.111 982.87 235.303 982.935 215.494 C 982.949 211.117 981.092 209.117 976.65 209.124 C 942.36 209.174 908.069 209.182 873.779 209.111 C 869.383 209.102 867.28 210.936 867.283 215.316 C 867.297 235.291 867.282 255.266 867.295 275.241 C 867.297 279.321 869.352 281.357 873.476 281.332 C 879.136 281.299 884.795 281.326 891.454 281.328 Z" style="fill: rgb(0, 27, 72);"/>
    <path opacity="1.000000" stroke="none" d="M 978.734 102.665 C 980.308 106.756 982.68 110.563 982.754 114.415 C 983.138 134.229 982.963 154.055 982.918 173.876 C 982.896 183.915 977.182 189.638 967.13 189.714 C 957.636 189.786 948.137 189.577 938.65 189.849 C 936.449 189.912 933.923 190.974 932.2 192.378 C 929.684 194.427 927.333 195.612 924.698 193.323 C 922.032 191.007 922.825 188.52 924.788 185.864 C 927.785 181.808 931.235 179.856 936.568 180.106 C 946.374 180.568 956.217 180.273 966.045 180.223 C 971.826 180.193 973.121 178.909 973.13 173.174 C 973.162 153.853 973.159 134.531 973.134 115.209 C 973.126 109.179 972.093 108.057 966.25 108.051 C 932.437 108.018 898.624 108.019 864.811 108.05 C 858.918 108.055 857.855 109.183 857.835 115.112 C 857.803 124.773 857.781 134.434 857.848 144.095 C 857.873 147.768 857.213 151.252 852.835 151.189 C 848.458 151.126 847.96 147.588 847.99 143.946 C 848.073 133.952 847.96 123.957 848.037 113.964 C 848.111 104.269 853.956 98.398 863.618 98.386 C 898.097 98.345 932.578 98.244 967.055 98.547 C 970.872 98.58 974.667 101.057 978.734 102.665 Z" style="fill: rgb(0, 27, 72);"/>
    <path opacity="1.000000" stroke="none" d="M 790.253 211.448 C 790.253 218.114 790.218 224.28 790.264 230.445 C 790.309 236.593 791.505 237.839 797.529 237.869 C 807.527 237.92 817.536 237.626 827.516 238.052 C 830.297 238.171 833.577 239.7 835.609 241.646 C 840.53 246.357 844.834 251.709 849.42 256.773 C 851.782 259.381 854.098 262.273 850.77 265.37 C 847.482 268.429 844.69 266.23 842.37 263.421 C 841.84 262.78 841.127 262.26 840.711 261.559 C 833.416 249.279 822.585 245.333 808.802 247.412 C 804.241 248.099 799.483 247.634 794.822 247.483 C 786.863 247.226 780.897 241.441 780.843 233.472 C 780.701 212.311 780.696 191.146 780.858 169.985 C 780.917 162.235 786.737 156.308 794.527 156.276 C 830.187 156.128 865.847 156.136 901.507 156.264 C 909.145 156.292 914.754 161.611 915.319 169.335 C 915.804 175.965 915.569 182.656 915.478 189.317 C 915.436 192.33 913.954 194.518 910.626 194.474 C 907.337 194.431 905.925 192.37 905.912 189.247 C 905.887 183.582 905.809 177.914 905.925 172.251 C 906.02 167.57 903.778 165.627 899.233 165.631 C 865.239 165.667 831.245 165.633 797.251 165.667 C 791.756 165.672 790.289 167.236 790.268 172.955 C 790.222 185.619 790.253 198.284 790.253 211.448 Z" style="fill: rgb(0, 27, 72);"/>
    <path opacity="1.000000" stroke="none" d="M 839.542 229.872 C 834.11 224.44 828.852 219.334 823.773 214.057 C 819.079 209.181 815.39 203.67 814.922 196.647 C 814.039 183.412 825.453 174.589 837.973 178.978 C 841.525 180.223 844.764 182.364 848.429 184.24 C 853.7 179.985 859.935 177.695 867.089 178.259 C 872.799 178.709 878.684 182.69 879.891 187.811 C 880.309 189.585 879.347 192.763 877.987 193.574 C 876.632 194.382 873.256 193.74 872.033 192.492 C 866.781 187.131 861.827 185.515 856.37 190.744 C 849.844 196.997 845.366 195.947 839.277 190.612 C 834.783 186.675 829.204 186.991 826.439 189.705 C 823.683 192.41 823.515 197.883 827.004 202.635 C 830.325 207.158 834.405 211.143 838.308 215.216 C 842.339 219.422 846.545 223.46 850.699 227.547 C 853.01 229.821 854.023 232.372 851.479 234.937 C 848.981 237.455 846.358 236.656 844.04 234.352 C 842.623 232.944 841.208 231.533 839.542 229.872 Z" style="fill: rgb(0, 27, 72);"/>
    <path opacity="1.000000" stroke="none" d="M 909.955 117.51 C 919.441 117.51 928.427 117.541 937.413 117.495 C 940.861 117.477 944.086 117.988 944.171 122.242 C 944.263 126.83 940.861 127.339 937.239 127.335 C 917.935 127.312 898.631 127.297 879.328 127.348 C 875.645 127.357 872.182 126.674 872.254 122.32 C 872.325 117.964 875.857 117.45 879.501 117.481 C 889.485 117.566 899.47 117.51 909.955 117.51 Z" style="fill: rgb(0, 27, 72);"/>
    <path opacity="1.000000" stroke="none" d="M 913.606 146.471 C 901.68 146.471 890.214 146.415 878.75 146.503 C 875.116 146.531 872.173 145.521 872.235 141.494 C 872.293 137.773 875.197 136.722 878.565 136.729 C 890.363 136.753 902.161 136.727 913.958 136.746 C 917.256 136.751 920.104 137.647 920.123 141.604 C 920.141 145.516 917.498 146.599 913.606 146.471 Z" style="fill: rgb(0, 27, 72);"/>
    <path opacity="1.000000" stroke="none" d="M 921.585 214.073 C 942.093 212.81 958.525 227.455 958.864 246.85 C 959.198 265.964 943.505 281.672 924.424 281.323 C 906.735 280.999 892.423 266.958 891.431 248.955 C 890.474 231.595 903.173 216.727 921.585 214.073 M 927.143 223.531 C 925.978 223.524 924.807 223.447 923.647 223.52 C 911.559 224.29 901.756 234.128 901.04 246.179 C 900.327 258.164 909.071 269.216 920.907 271.29 C 932.915 273.394 944.562 266.24 948.094 254.497 C 952.411 240.142 942.951 225.605 927.143 223.531 Z" style="fill: rgb(0, 27, 72);"/>
    <g id="XMLID_26_" transform="matrix(1, 0, 0, 1, 1223.244751, 209.942261)">
      <path id="XMLID_30_" d="M -288.475 43.638 L -307.938 43.638 C -309.099 43.638 -310.144 44.336 -310.588 45.408 C -311.032 46.479 -310.786 47.713 -309.966 48.533 C -306.825 51.673 -302.649 53.404 -298.207 53.404 C -293.765 53.404 -289.588 51.673 -286.447 48.533 C -285.627 47.713 -285.382 46.48 -285.825 45.408 C -286.269 44.336 -287.315 43.638 -288.475 43.638 Z" style="fill: rgb(0, 27, 72);"/>
    </g>
  </g>
</svg>